<svg width="539" height="92" viewBox="0 0 539 92" fill="none" xmlns="http://www.w3.org/2000/svg">
<path d="M0 20.4445L7.32525 13.1193C7.45124 12.9933 7.66667 13.0825 7.66667 13.2607V81.2947C7.66667 81.4728 7.45124 81.5621 7.32525 81.4361L0 74.1112V20.4445Z" fill="#67C2EA"/>
<path d="M12.7771 18.0117L22.6571 8.01289C22.7827 7.88573 22.9993 7.9747 22.9993 8.15346V86.4059C22.9993 86.5841 22.7839 86.6733 22.6579 86.5473L12.7771 76.6665V18.0117Z" fill="#CB6CF4"/>
<path d="M28.1111 17.889L40.5352 2.98004C40.655 2.83633 40.8889 2.92101 40.8889 3.10807V88.9617C40.8889 89.1399 40.6734 89.2291 40.5474 89.1031L28.1111 76.6668V17.889Z" fill="#0080FF"/>
<path d="M45.9998 16.6111L63.5526 0.312084C63.6805 0.193255 63.8886 0.28401 63.8886 0.458643V91.5652C63.8886 91.736 63.6882 91.8282 63.5585 91.717L45.9998 76.6667V16.6111Z" fill="#07589C"/>
<path d="M523.398 66.9023C521.566 66.9023 520.059 66.8412 518.879 66.7189C517.698 66.5967 516.436 66.3522 515.093 65.9855C513.627 65.578 512.447 65.0075 511.551 64.2741C510.655 63.4999 509.902 62.4201 509.291 61.0347C508.681 59.69 508.375 58.0601 508.375 56.145V47.4046C508.375 45.4487 508.681 43.7373 509.291 42.2704C509.902 40.8035 510.696 39.6626 511.673 38.8476C512.528 38.1549 513.647 37.5845 515.032 37.1362C516.456 36.6473 517.841 36.3417 519.184 36.2194C520.731 36.1379 522.136 36.0972 523.398 36.0972C525.27 36.0972 526.756 36.1583 527.855 36.2805C528.995 36.362 530.237 36.6065 531.58 37.014C533.046 37.4622 534.227 38.0734 535.122 38.8476C536.059 39.6218 536.852 40.722 537.504 42.1482C538.114 43.6151 538.42 45.3672 538.42 47.4046V56.145C538.42 57.9786 538.114 59.5881 537.504 60.9735C536.934 62.3589 536.181 63.4388 535.244 64.213C534.43 64.9057 533.311 65.4761 531.886 65.9244C530.502 66.3318 529.138 66.5967 527.794 66.7189C526.573 66.8412 525.107 66.9023 523.398 66.9023ZM523.398 61.3403C525.067 61.3403 526.329 61.218 527.184 60.9735C528.039 60.6883 528.629 60.2605 528.955 59.69C529.321 59.1195 529.504 58.2842 529.504 57.184V45.9988C529.504 44.3689 529.077 43.228 528.222 42.576C527.367 41.9241 525.759 41.5981 523.398 41.5981C521.036 41.5981 519.428 41.9241 518.573 42.576C517.719 43.228 517.291 44.3689 517.291 45.9988V57.184C517.291 58.2842 517.454 59.1195 517.78 59.69C518.146 60.2605 518.757 60.6883 519.612 60.9735C520.466 61.218 521.728 61.3403 523.398 61.3403Z" fill="#379BFF"/>
<path d="M491.019 26.0122H499.934V33.2245H491.019V26.0122ZM491.019 36.7084H499.934V66.2911H491.019V36.7084Z" fill="#379BFF"/>
<path d="M473.074 57.8564H482.6V66.2912H473.074V57.8564Z" fill="#379BFF"/>
<path d="M453.436 66.9023C442.973 66.9023 437.742 63.7036 437.742 57.3063V46.6712C437.742 42.9631 438.922 40.2738 441.284 38.6031C443.685 36.9325 447.37 36.0972 452.336 36.0972C457.018 36.0972 460.438 36.9121 462.595 38.542C464.794 40.1312 465.893 42.8409 465.893 46.6712V53.8835H446.718V56.5728C446.718 58.2842 447.329 59.5066 448.55 60.2401C449.772 60.9735 451.97 61.3403 455.145 61.3403C458.077 61.3403 461.374 60.9124 465.038 60.0567V65.741C461.415 66.5152 457.547 66.9023 453.436 66.9023ZM457.405 48.8104V44.5319C457.405 43.554 456.998 42.8205 456.184 42.3315C455.41 41.8426 454.087 41.5981 452.214 41.5981C450.057 41.5981 448.611 41.8426 447.879 42.3315C447.105 42.8613 446.718 43.5947 446.718 44.5319V48.8104H457.405Z" fill="#379BFF"/>
<path d="M427.286 66.9028C425.78 66.9028 424.518 66.8416 423.5 66.7194C422.482 66.5971 421.464 66.3527 420.447 65.9859C419.307 65.6192 418.37 65.1099 417.637 64.4579C416.945 63.8059 416.375 62.9095 415.928 61.7686C415.439 60.5869 415.195 59.2218 415.195 57.6734V42.2098H409.21V36.7088H415.195V28.1519H424.11V36.7088H432.232V42.2098H424.11V56.1454C424.11 57.5716 424.233 58.6514 424.477 59.3848C424.721 60.0775 425.189 60.5869 425.881 60.9129C426.573 61.1981 427.632 61.3407 429.057 61.3407C429.627 61.3407 430.685 61.2388 432.232 61.0351V66.5971C430.319 66.8009 428.67 66.9028 427.286 66.9028Z" fill="#379BFF"/>
<path d="M385.184 66.9023C382.416 66.9023 380.339 66.6578 378.955 66.1688C377.612 65.6391 376.655 64.7223 376.085 63.4184C375.556 62.0737 375.291 60.0771 375.291 57.4285C375.291 55.0651 375.576 53.2111 376.146 51.8665C376.757 50.5218 377.714 49.5642 379.016 48.9938C380.36 48.3825 382.192 48.0769 384.512 48.0769H394.527V46.0599C394.527 44.7968 394.344 43.8596 393.977 43.2484C393.652 42.6371 393.021 42.2093 392.084 41.9648C391.189 41.7203 389.825 41.5981 387.993 41.5981C385.469 41.5981 382.008 41.8426 377.612 42.3315V36.7084C380.828 36.3009 384.594 36.0972 388.909 36.0972C392.695 36.0972 395.606 36.3824 397.641 36.9529C399.718 37.5233 401.203 38.5013 402.099 39.8867C402.995 41.2721 403.443 43.2891 403.443 45.9377V66.2911H394.71V63.6018C394.018 64.7834 393.082 65.6188 391.901 66.1077C390.721 66.6374 388.481 66.9023 385.184 66.9023ZM388.665 61.3403C390.456 61.3403 391.738 61.2791 392.512 61.1569C393.082 61.0754 393.468 60.9532 393.672 60.7902C393.916 60.6272 394.12 60.3623 394.283 59.9956C394.446 59.7104 394.527 59.2825 394.527 58.712V52.9666H388.42C387.036 52.9666 386.059 53.0685 385.489 53.2723C384.919 53.4352 384.533 53.802 384.329 54.3724C384.125 54.9022 384.024 55.8597 384.024 57.2451C384.024 58.5898 384.125 59.527 384.329 60.0567C384.533 60.5864 384.919 60.9328 385.489 61.0958C386.1 61.2588 387.158 61.3403 388.665 61.3403Z" fill="#379BFF"/>
<path d="M358.606 23.5063H367.522V66.2913H358.606V23.5063Z" fill="#379BFF"/>
<path d="M336.11 66.9023C332.935 66.9023 329.047 66.5967 324.447 65.9855V60.0567C330.106 60.9124 334.034 61.3403 336.232 61.3403C338.105 61.3403 339.489 61.1569 340.385 60.7902C341.281 60.4234 341.728 59.7511 341.728 58.7732V56.9395C341.728 55.9208 341.443 55.2078 340.873 54.8003C340.304 54.3521 339.184 54.1279 337.515 54.1279H333.668C330.533 54.1279 328.111 53.5167 326.401 52.2943C324.691 51.0311 323.836 49.1975 323.836 46.7934V43.1872C323.836 40.6201 325.057 38.8069 327.5 37.7474C329.943 36.6473 333.627 36.0972 338.553 36.0972C340.507 36.0972 344.008 36.2805 349.056 36.6473V42.3315C342.705 41.8426 339.123 41.5981 338.309 41.5981C335.907 41.5981 334.339 41.7611 333.607 42.0871C332.955 42.4538 332.63 43.1261 332.63 44.1041V45.6932C332.63 46.2229 332.894 46.6915 333.423 47.099C333.953 47.4657 334.726 47.6491 335.744 47.6491H339.652C346.899 47.6491 350.522 50.0125 350.522 54.7392V58.4676C350.522 59.8937 350.257 61.1365 349.728 62.196C349.199 63.2554 348.507 64.0907 347.652 64.7019C346.838 65.2724 345.779 65.7206 344.476 66.0466C343.214 66.3726 341.891 66.5967 340.507 66.7189C339.245 66.8412 337.78 66.9023 336.11 66.9023Z" fill="#379BFF"/>
<path d="M287.519 36.7084H296.312V40.3145C297.004 37.503 300.159 36.0972 305.777 36.0972C309.564 36.0972 312.21 36.7899 313.716 38.1753C315.263 39.52 316.036 41.6592 316.036 44.593V66.2911H307.121V45.7543C307.121 44.6134 306.999 43.7577 306.755 43.1872C306.551 42.6168 306.103 42.2093 305.411 41.9648C304.76 41.7203 303.742 41.5981 302.358 41.5981C300.607 41.5981 299.325 41.7203 298.511 41.9648C297.696 42.1686 297.147 42.5557 296.862 43.1261C296.577 43.6966 296.434 44.5727 296.434 45.7543V66.2911H287.519V36.7084Z" fill="#379BFF"/>
<path d="M260.195 66.9023C257.427 66.9023 255.35 66.6578 253.966 66.1688C252.623 65.6391 251.666 64.7223 251.096 63.4184C250.567 62.0737 250.302 60.0771 250.302 57.4285C250.302 55.0651 250.587 53.2111 251.157 51.8665C251.768 50.5218 252.725 49.5642 254.027 48.9938C255.371 48.3825 257.203 48.0769 259.523 48.0769H269.538V46.0599C269.538 44.7968 269.355 43.8596 268.988 43.2484C268.663 42.6371 268.032 42.2093 267.095 41.9648C266.2 41.7203 264.836 41.5981 263.004 41.5981C260.48 41.5981 257.019 41.8426 252.623 42.3315V36.7084C255.839 36.3009 259.605 36.0972 263.92 36.0972C267.706 36.0972 270.617 36.3824 272.652 36.9529C274.729 37.5233 276.214 38.5013 277.11 39.8867C278.006 41.2721 278.454 43.2891 278.454 45.9377V66.2911H269.721V63.6018C269.029 64.7834 268.093 65.6188 266.912 66.1077C265.732 66.6374 263.492 66.9023 260.195 66.9023ZM263.676 61.3403C265.467 61.3403 266.749 61.2791 267.523 61.1569C268.093 61.0754 268.479 60.9532 268.683 60.7902C268.927 60.6272 269.131 60.3623 269.294 59.9956C269.457 59.7104 269.538 59.2825 269.538 58.712V52.9666H263.431C262.047 52.9666 261.07 53.0685 260.5 53.2723C259.93 53.4352 259.544 53.802 259.34 54.3724C259.136 54.9022 259.035 55.8597 259.035 57.2451C259.035 58.5898 259.136 59.527 259.34 60.0567C259.544 60.5864 259.93 60.9328 260.5 61.0958C261.111 61.2588 262.169 61.3403 263.676 61.3403Z" fill="#379BFF"/>
<path d="M226.336 36.7084H234.824V41.9037C234.824 40.9665 235.211 40.0497 235.985 39.1532C236.758 38.2568 237.735 37.5233 238.916 36.9529C240.137 36.3824 241.338 36.0972 242.519 36.0972H245.694V43.4928H242.641C240.117 43.4928 238.244 43.8799 237.023 44.6541C235.842 45.4284 235.252 46.7119 235.252 48.5048V66.2911H226.336V36.7084Z" fill="#379BFF"/>
<path d="M215.025 66.9028C213.519 66.9028 212.257 66.8416 211.239 66.7194C210.222 66.5971 209.204 66.3527 208.186 65.9859C207.046 65.6192 206.11 65.1099 205.377 64.4579C204.685 63.8059 204.115 62.9095 203.667 61.7686C203.179 60.5869 202.934 59.2218 202.934 57.6734V42.2098H196.95V36.7088H202.934V28.1519H211.85V36.7088H219.972V42.2098H211.85V56.1454C211.85 57.5716 211.972 58.6514 212.216 59.3848C212.461 60.0775 212.929 60.5869 213.621 60.9129C214.313 61.1981 215.371 61.3407 216.796 61.3407C217.366 61.3407 218.425 61.2388 219.972 61.0351V66.5971C218.058 66.8009 216.41 66.9028 215.025 66.9028Z" fill="#379BFF"/>
<path d="M183.978 66.9023C182.431 66.9023 181.21 66.8616 180.314 66.7801C179.419 66.7393 178.32 66.6374 177.017 66.4745C175.714 66.3115 174.635 66.0262 173.78 65.6187C172.966 65.2113 172.111 64.6001 171.216 63.7851C169.546 62.3997 168.712 60.0363 168.712 56.695V46.8545C168.712 44.1652 169.323 41.9241 170.544 40.1312C170.992 39.4792 171.643 38.8884 172.498 38.3587C173.394 37.7882 174.289 37.34 175.185 37.014C175.918 36.7695 176.895 36.5658 178.116 36.4028C179.337 36.2398 180.416 36.1379 181.353 36.0972H184.589C186.869 36.0972 189.861 36.4639 193.566 37.1974V43.065C189.372 42.0871 186.156 41.5981 183.917 41.5981C179.806 41.5981 177.75 42.9835 177.75 45.7543V56.6339C177.75 59.7715 180.009 61.3403 184.528 61.3403C186.726 61.3403 189.881 60.892 193.993 59.9956V65.8632C190.288 66.5559 186.95 66.9023 183.978 66.9023Z" fill="#379BFF"/>
<path d="M146.374 66.9023C144.542 66.9023 143.036 66.8412 141.855 66.7189C140.675 66.5967 139.413 66.3522 138.069 65.9855C136.604 65.578 135.423 65.0075 134.527 64.2741C133.632 63.4999 132.879 62.4201 132.268 61.0347C131.657 59.69 131.352 58.0601 131.352 56.145V47.4046C131.352 45.4487 131.657 43.7373 132.268 42.2704C132.879 40.8035 133.673 39.6626 134.65 38.8476C135.505 38.1549 136.624 37.5845 138.008 37.1362C139.433 36.6473 140.817 36.3417 142.161 36.2194C143.708 36.1379 145.112 36.0972 146.374 36.0972C148.247 36.0972 149.733 36.1583 150.832 36.2805C151.972 36.362 153.214 36.6065 154.557 37.014C156.023 37.4622 157.203 38.0734 158.099 38.8476C159.035 39.6218 159.829 40.722 160.48 42.1482C161.091 43.6151 161.396 45.3672 161.396 47.4046V56.145C161.396 57.9786 161.091 59.5881 160.48 60.9735C159.91 62.3589 159.157 63.4388 158.221 64.213C157.407 64.9057 156.287 65.4761 154.862 65.9244C153.478 66.3318 152.114 66.5967 150.771 66.7189C149.55 66.8412 148.084 66.9023 146.374 66.9023ZM146.374 61.3403C148.043 61.3403 149.305 61.218 150.16 60.9735C151.015 60.6883 151.606 60.2605 151.931 59.69C152.298 59.1195 152.481 58.2842 152.481 57.184V45.9988C152.481 44.3689 152.053 43.228 151.198 42.576C150.343 41.9241 148.735 41.5981 146.374 41.5981C144.013 41.5981 142.405 41.9241 141.55 42.576C140.695 43.228 140.268 44.3689 140.268 45.9988V57.184C140.268 58.2842 140.43 59.1195 140.756 59.69C141.123 60.2605 141.733 60.6883 142.588 60.9735C143.443 61.218 144.705 61.3403 146.374 61.3403Z" fill="#379BFF"/>
<path d="M87.9978 26.6235H104.852C109.493 26.6235 113.157 26.9903 115.844 27.7237C118.531 28.4164 120.505 29.6389 121.767 31.391C123.029 33.1431 123.66 35.5676 123.66 38.6644V54.8005C123.66 57.8158 123.07 60.1588 121.889 61.8294C120.709 63.4593 118.775 64.6206 116.088 65.3133C113.401 65.9653 109.676 66.2913 104.913 66.2913H87.9978V26.6235ZM104.486 59.5068C107.091 59.5068 109.045 59.4049 110.348 59.2012C111.691 58.9567 112.648 58.5085 113.218 57.8565C113.829 57.2046 114.134 56.1859 114.134 54.8005V38.4811C114.134 36.6067 113.381 35.3028 111.874 34.5693C110.409 33.7951 108.048 33.408 104.791 33.408H97.524V59.5068H104.486Z" fill="#379BFF"/>
</svg>
