<svg width="64" height="92" viewBox="0 0 64 92" fill="none" xmlns="http://www.w3.org/2000/svg">
<path d="M0 20.4445L7.32525 13.1193C7.45124 12.9933 7.66667 13.0825 7.66667 13.2607V81.2947C7.66667 81.4728 7.45124 81.5621 7.32525 81.4361L0 74.1112V20.4445Z" fill="#67C2EA"/>
<path d="M12.7771 18.0117L22.6571 8.01289C22.7827 7.88573 22.9993 7.9747 22.9993 8.15346V86.4059C22.9993 86.5841 22.7839 86.6733 22.6579 86.5473L12.7771 76.6665V18.0117Z" fill="#CB6CF4"/>
<path d="M28.1111 17.889L40.5352 2.98004C40.655 2.83633 40.8889 2.92101 40.8889 3.10807V88.9617C40.8889 89.1399 40.6734 89.2291 40.5474 89.1031L28.1111 76.6668V17.889Z" fill="#0080FF"/>
<path d="M45.9998 16.6111L63.5526 0.312084C63.6805 0.193255 63.8886 0.28401 63.8886 0.458643V91.5652C63.8886 91.736 63.6882 91.8282 63.5585 91.717L45.9998 76.6667V16.6111Z" fill="#07589C"/>
</svg>
