<svg width="20" height="21" viewBox="0 0 20 21" fill="none" xmlns="http://www.w3.org/2000/svg">
<g id="vscode-icons:file-type-powerpoint">
<path id="Vector" d="M11.8312 11.3125L10.6106 2.375H10.5193C8.38838 2.37862 6.34552 3.22572 4.8373 4.73112C3.32908 6.23653 2.47818 8.27781 2.47058 10.4087V10.5L11.8312 11.3125Z" fill="#ED6C47"/>
<path id="Vector_2" d="M10.7026 2.375H10.6113V10.5L14.6807 12.125L18.7507 10.5V10.4088C18.7431 8.27792 17.8923 6.23673 16.3842 4.73135C14.8761 3.22596 12.8334 2.37879 10.7026 2.375Z" fill="#FF8F6B"/>
<path id="Vector_3" d="M18.75 10.5V10.5894C18.742 12.7206 17.8909 14.7621 16.3825 16.2677C14.8742 17.7734 12.8312 18.6209 10.7 18.625H10.5206C8.38944 18.6206 6.34665 17.773 4.83835 16.2674C3.33006 14.7618 2.47883 12.7205 2.47058 10.5894V10.5H18.75Z" fill="#D35230"/>
<path id="Vector_4" opacity="0.1" d="M11.0175 6.36813V15.0375C11.0163 15.185 10.9717 15.3289 10.8893 15.4512C10.8068 15.5735 10.6901 15.6687 10.5537 15.725C10.4647 15.7625 10.3691 15.7818 10.2725 15.7819H4.39184C4.27774 15.651 4.16911 15.5155 4.06621 15.3756C3.02952 13.9956 2.4695 12.316 2.47059 10.59V10.4113C2.46862 8.85433 2.92439 7.33119 3.78121 6.03125C3.87007 5.89162 3.96516 5.75607 4.06621 5.625H10.2725C10.4693 5.6263 10.6578 5.70496 10.7972 5.84399C10.9365 5.98301 11.0157 6.17127 11.0175 6.36813Z" fill="black"/>
<path id="Vector_5" opacity="0.2" d="M10.6106 6.775V15.4444C10.6106 15.5406 10.5912 15.6358 10.5537 15.7244C10.4973 15.8606 10.402 15.9772 10.2798 16.0595C10.1575 16.1419 10.0136 16.1864 9.86621 16.1875H4.76246C4.63371 16.0567 4.51017 15.9213 4.39184 15.7812C4.27774 15.6504 4.16911 15.5148 4.06621 15.375C3.02952 13.995 2.4695 12.3154 2.47059 10.5894V10.4106C2.46874 8.85392 2.92451 7.33101 3.78121 6.03125H9.86559C10.0626 6.03256 10.2511 6.1113 10.3905 6.25046C10.5299 6.38962 10.6089 6.57804 10.6106 6.775Z" fill="black"/>
<path id="Vector_6" opacity="0.2" d="M10.6106 6.775V14.6319C10.6088 14.8287 10.5297 15.017 10.3903 15.156C10.2509 15.295 10.0624 15.3737 9.86559 15.375H4.06621C3.02952 13.995 2.4695 12.3154 2.47059 10.5894V10.4106C2.46874 8.85392 2.92451 7.33101 3.78121 6.03125H9.86559C10.0626 6.03256 10.2511 6.1113 10.3905 6.25046C10.5299 6.38962 10.6089 6.57804 10.6106 6.775Z" fill="black"/>
<path id="Vector_7" opacity="0.2" d="M10.2037 6.775V14.6319C10.2019 14.8287 10.1228 15.017 9.9834 15.156C9.84403 15.295 9.65557 15.3737 9.45871 15.375H4.06621C3.02952 13.995 2.4695 12.3154 2.47059 10.5894V10.4106C2.46874 8.85392 2.92451 7.33101 3.78121 6.03125H9.45871C9.65568 6.03256 9.84423 6.1113 9.98362 6.25046C10.123 6.38962 10.2021 6.57804 10.2037 6.775Z" fill="black"/>
<path id="Vector_8" d="M1.99625 6.03125H9.4575C9.65514 6.03109 9.84477 6.1094 9.9847 6.24898C10.1246 6.38856 10.2034 6.57798 10.2037 6.77563V14.2244C10.2034 14.422 10.1246 14.6114 9.9847 14.751C9.84477 14.8906 9.65514 14.9689 9.4575 14.9688H1.99625C1.89836 14.9689 1.8014 14.9498 1.71091 14.9125C1.62042 14.8751 1.53817 14.8203 1.46887 14.7512C1.39956 14.6821 1.34456 14.6 1.30701 14.5096C1.26945 14.4192 1.25008 14.3223 1.25 14.2244V6.77563C1.25008 6.67774 1.26945 6.58083 1.30701 6.49043C1.34456 6.40003 1.39956 6.31792 1.46887 6.24879C1.53817 6.17966 1.62042 6.12487 1.71091 6.08754C1.8014 6.05021 1.89836 6.03109 1.99625 6.03125Z" fill="url(#paint0_linear_3066_26632)"/>
<path id="Vector_9" d="M5.80814 8.01757C6.29384 7.9849 6.77537 8.12577 7.16688 8.41507C7.32787 8.55838 7.45408 8.73647 7.53595 8.93584C7.61783 9.13521 7.6532 9.35062 7.63938 9.5657C7.64485 9.86868 7.56399 10.167 7.40626 10.4257C7.24668 10.6803 7.0168 10.8833 6.74439 11.0101C6.43313 11.1544 6.09303 11.2258 5.75001 11.2188H4.80438V12.9688H3.83813V8.01757H5.80814ZM4.80376 10.4626H5.63564C5.89939 10.4816 6.161 10.4036 6.37126 10.2432C6.45724 10.1612 6.52418 10.0613 6.56738 9.95064C6.61057 9.83995 6.62896 9.72114 6.62126 9.60257C6.62126 9.05716 6.30355 8.78424 5.66814 8.78382H4.80376V10.4626Z" fill="white"/>
</g>
<defs>
<linearGradient id="paint0_linear_3066_26632" x1="2.80875" y1="5.44625" x2="8.645" y2="15.5538" gradientUnits="userSpaceOnUse">
<stop stop-color="#CA4C28"/>
<stop offset="0.5" stop-color="#C5401E"/>
<stop offset="1" stop-color="#B62F14"/>
</linearGradient>
</defs>
</svg>
