<svg width="47" height="46" viewBox="0 0 47 46" fill="none" xmlns="http://www.w3.org/2000/svg">
<g id="file-download 1">
<path id="Vector" d="M25.4167 22.9941H31.1667L23.5 15.3274L15.8333 22.9941H21.5833V32.2H25.4167V22.9941ZM29.25 7.66073H10.0833V38.3274H36.9167V15.3274H29.25V7.66073ZM6.25 5.72873C6.25 4.67839 7.10675 3.82739 8.16475 3.82739H31.1667L40.75 13.4107V40.2306C40.7517 40.4823 40.704 40.7318 40.6093 40.9651C40.5146 41.1984 40.3749 41.4107 40.1982 41.5899C40.0215 41.7691 39.811 41.9118 39.5793 42.0097C39.3474 42.1076 39.0984 42.159 38.8468 42.1607H8.15325C7.6499 42.1573 7.16812 41.9558 6.81201 41.6001C6.45589 41.2444 6.25401 40.7627 6.25 40.2594V5.72873Z" fill="#0080FF"/>
</g>
</svg>
