<svg width="20" height="21" viewBox="0 0 20 21" fill="none" xmlns="http://www.w3.org/2000/svg">
<g id="vscode-icons:file-type-pdf2">
<path id="Vector" d="M15.062 1.79492L18.5395 5.41992V19.2049H5.54883V19.2499H18.5838V5.46555L15.062 1.79492Z" fill="#909090"/>
<path id="Vector_2" d="M15.0202 1.75H5.50586V19.205H18.5409V5.42063L15.0202 1.75Z" fill="#F4F4F4"/>
<path id="Vector_3" d="M5.40977 2.6875H1.41602V6.95437H13.9785V2.6875H5.40977Z" fill="#7A7B7C"/>
<path id="Vector_4" d="M14.0442 6.88182H1.49609V2.61182H14.0442V6.88182Z" fill="#DD2025"/>
<path id="Vector_5" d="M5.65672 3.33368H4.83984V6.33368H5.48234V5.32181L5.62422 5.32993C5.76208 5.32756 5.89864 5.30287 6.02859 5.25681C6.14253 5.21762 6.24735 5.15575 6.33672 5.07493C6.42766 4.99794 6.49935 4.90078 6.54609 4.79118C6.60878 4.60899 6.63117 4.41537 6.61172 4.22368C6.60782 4.08675 6.58381 3.95113 6.54047 3.82118C6.50101 3.72737 6.44246 3.64281 6.36854 3.57287C6.29462 3.50292 6.20694 3.44914 6.11109 3.41493C6.02822 3.38493 5.9426 3.36316 5.85547 3.34993C5.78948 3.33975 5.72286 3.33432 5.65609 3.33368M5.53797 4.76743H5.48234V3.84243H5.60297C5.65621 3.83859 5.70963 3.84677 5.75928 3.86635C5.80894 3.88593 5.85356 3.91641 5.88984 3.95556C5.96504 4.05619 6.00522 4.17868 6.00422 4.30431C6.00422 4.45806 6.00422 4.59743 5.86547 4.69556C5.76551 4.75053 5.65173 4.77591 5.53797 4.76743ZM7.83234 3.32556C7.76297 3.32556 7.69547 3.33056 7.64797 3.33243L7.49922 3.33618H7.01172V6.33618H7.58547C7.80473 6.34219 8.02304 6.30503 8.22797 6.22681C8.39291 6.16138 8.53897 6.05592 8.65297 5.91993C8.76382 5.78272 8.84338 5.62296 8.88609 5.45181C8.9352 5.25798 8.95914 5.05863 8.95734 4.85868C8.96947 4.62253 8.95119 4.3858 8.90297 4.15431C8.85721 3.98391 8.77151 3.82686 8.65297 3.69618C8.55996 3.59066 8.44612 3.50554 8.31859 3.44618C8.20908 3.39551 8.09388 3.35815 7.97547 3.33493C7.92838 3.32715 7.88069 3.3236 7.83297 3.32431M7.71922 5.78493H7.65672V3.86993H7.66484C7.79369 3.85511 7.92406 3.87836 8.03984 3.93681C8.12463 4.00451 8.19372 4.08981 8.24234 4.18681C8.29482 4.28889 8.32506 4.40094 8.33109 4.51556C8.33672 4.65306 8.33109 4.76556 8.33109 4.85868C8.33364 4.96596 8.32674 5.07324 8.31047 5.17931C8.29121 5.2882 8.25559 5.39356 8.20484 5.49181C8.1474 5.58315 8.06979 5.66012 7.97797 5.71681C7.90086 5.76668 7.80954 5.78995 7.71797 5.78306M10.893 3.33618H9.37422V6.33618H10.0167V5.14618H10.8292V4.58868H10.0167V3.89368H10.8917V3.33618" fill="#464648"/>
<path id="Vector_6" d="M13.6124 13.1594C13.6124 13.1594 15.6049 12.7982 15.6049 13.4788C15.6049 14.1594 14.3706 13.8826 13.6124 13.1594ZM12.1393 13.2113C11.8228 13.2813 11.5142 13.3837 11.2187 13.5169L11.4687 12.9544C11.7187 12.3919 11.9781 11.6251 11.9781 11.6251C12.2764 12.1272 12.6235 12.5986 13.0143 13.0326C12.7196 13.0765 12.4275 13.1366 12.1393 13.2126V13.2113ZM11.3506 9.14882C11.3506 8.55569 11.5424 8.39382 11.6918 8.39382C11.8412 8.39382 12.0093 8.46569 12.0149 8.98069C11.9663 9.49854 11.8578 10.009 11.6918 10.5019C11.4644 10.0881 11.3467 9.62291 11.3499 9.15069L11.3506 9.14882ZM8.44494 15.7213C7.83369 15.3557 9.72682 14.2301 10.0699 14.1938C10.0681 14.1944 9.08494 16.1038 8.44494 15.7213ZM16.1868 13.5594C16.1806 13.4969 16.1243 12.8051 14.8931 12.8344C14.3799 12.8262 13.8669 12.8623 13.3599 12.9426C12.8689 12.4478 12.446 11.8898 12.1024 11.2832C12.3189 10.6578 12.4498 10.0061 12.4918 9.34569C12.4737 8.59569 12.2943 8.16569 11.7193 8.17194C11.1443 8.17819 11.0606 8.68132 11.1362 9.43007C11.2103 9.93322 11.35 10.4245 11.5518 10.8913C11.5518 10.8913 11.2862 11.7182 10.9349 12.5407C10.5837 13.3632 10.3437 13.7944 10.3437 13.7944C9.7329 13.9933 9.1579 14.2887 8.64057 14.6694C8.12557 15.1488 7.91619 15.5169 8.18744 15.8851C8.42119 16.2026 9.23932 16.2744 9.97057 15.3163C10.3591 14.8214 10.7141 14.3011 11.0331 13.7588C11.0331 13.7588 12.1481 13.4532 12.4949 13.3694C12.8418 13.2857 13.2612 13.2194 13.2612 13.2194C13.2612 13.2194 14.2793 14.2438 15.2612 14.2076C16.2431 14.1713 16.1956 13.6207 16.1893 13.5607" fill="#DD2025"/>
<path id="Vector_7" d="M14.9707 1.79834V5.46897H18.4913L14.9707 1.79834Z" fill="#909090"/>
<path id="Vector_8" d="M15.0194 1.75V5.42063H18.54L15.0194 1.75Z" fill="#F4F4F4"/>
<path id="Vector_9" d="M5.60984 3.28583H4.79297V6.28583H5.43797V5.27458L5.58047 5.28271C5.71833 5.28033 5.85489 5.25564 5.98484 5.20958C6.09878 5.17038 6.20359 5.10851 6.29297 5.02771C6.38322 4.95051 6.45426 4.85336 6.50047 4.74396C6.56315 4.56177 6.58554 4.36814 6.56609 4.17646C6.56219 4.03952 6.53818 3.90391 6.49484 3.77396C6.45539 3.68015 6.39684 3.59558 6.32291 3.52564C6.24899 3.4557 6.16132 3.40191 6.06547 3.36771C5.98222 3.33741 5.89617 3.31543 5.80859 3.30208C5.74261 3.2919 5.67598 3.28647 5.60922 3.28583M5.49109 4.71958H5.43547V3.79458H5.55672C5.60996 3.79074 5.66338 3.79891 5.71303 3.8185C5.76269 3.83808 5.80731 3.86856 5.84359 3.90771C5.91879 4.00834 5.95896 4.13083 5.95797 4.25646C5.95797 4.41021 5.95797 4.54958 5.81922 4.64771C5.71926 4.70268 5.60548 4.72744 5.49172 4.71896M7.78547 3.27771C7.71609 3.27771 7.64859 3.28271 7.60109 3.28458L7.45422 3.28833H6.96672V6.28833H7.54047C7.75973 6.29434 7.97804 6.25718 8.18297 6.17896C8.34791 6.11353 8.49397 6.00807 8.60797 5.87208C8.71882 5.73487 8.79838 5.5751 8.84109 5.40396C8.8902 5.21012 8.91414 5.01078 8.91234 4.81083C8.92447 4.57468 8.90619 4.33795 8.85797 4.10646C8.81221 3.93606 8.72651 3.77901 8.60797 3.64833C8.51496 3.54281 8.40112 3.45769 8.27359 3.39833C8.16408 3.34765 8.04888 3.3103 7.93047 3.28708C7.88338 3.2793 7.83569 3.27575 7.78797 3.27646M7.67422 5.73708H7.61172V3.82208H7.61984C7.74869 3.80726 7.87906 3.8305 7.99484 3.88896C8.07963 3.95666 8.14872 4.04196 8.19734 4.13896C8.24982 4.24104 8.28006 4.35308 8.28609 4.46771C8.29172 4.60521 8.28609 4.71771 8.28609 4.81083C8.28864 4.9181 8.28174 5.02539 8.26547 5.13146C8.24621 5.24035 8.21059 5.34571 8.15984 5.44396C8.1024 5.5353 8.02479 5.61227 7.93297 5.66896C7.85586 5.71883 7.76454 5.7421 7.67297 5.73521M10.8461 3.28833H9.32734V6.28833H9.96984V5.09833H10.7823V4.54083H9.96984V3.84583H10.8448V3.28833" fill="white"/>
</g>
</svg>
