<svg xmlns="http://www.w3.org/2000/svg" x="0px" y="0px" width="100" height="100" viewBox="0,0,300,150">
<g fill="#0080ff" fillRule="nonzero" stroke="none" strokeWidth="1" strokeLinecap="butt" strokeLinejoin="miter" stroke-miterlimit="10" stroke-dasharray="" stroke-dashoffset="0" font-family="none" font-weight="none" font-size="none" text-anchor="none" style="mix-blend-mode: normal"><g transform="scale(5.12,5.12)"><path d="M20,8c-6.46094,0 -11.63281,5.10938 -11.90625,11.5c-4.67578,1.27734 -8.09375,5.49609 -8.09375,10.5c0,6.04688 4.95313,11 11,11h30c4.94531,0 9,-4.05469 9,-9c0,-3.89844 -2.59766,-7.20703 -6.09375,-8.375c-0.21094,-5.86328 -4.99609,-10.625 -10.90625,-10.625c-1.03906,0 -2.00781,0.25781 -2.96875,0.53125c-2.14844,-3.26953 -5.8125,-5.53125 -10.03125,-5.53125zM20,10c3.72656,0 6.99219,2.09375 8.71875,5.09375l0.4375,0.71875l0.78125,-0.28125c1,-0.36328 1.97266,-0.53125 3.0625,-0.53125c4.95313,0 9,4.04688 9,9v1.09375l0.78125,0.1875c2.93359,0.69141 5.21875,3.48828 5.21875,6.71875c0,3.85547 -3.14453,7 -7,7h-30c-4.95312,0 -9,-4.04687 -9,-9c0,-4.32812 3.05859,-8.00391 7.1875,-8.8125l0.8125,-0.15625v-1.03125c0,-5.56641 4.43359,-10 10,-10zM25,18.59375l-0.71875,0.6875l-6,6l1.4375,1.4375l4.28125,-4.28125v11.5625h2v-11.5625l4.28125,4.28125l1.4375,-1.4375l-6,-6z"></path></g></g>
</svg>